<svg xmlns="http://www.w3.org/2000/svg" viewBox="-96 0 407.8671875 728" width="407.8671875" height="728"><defs><marker id="arrow-open" viewBox="0 0 10 10" refX="9" refY="5" markerWidth="7" markerHeight="7" orient="auto-start-reverse"><path d="M1 1L9 5L1 9" fill="none" stroke="#2E332B" stroke-width="1"/></marker><marker id="arrow-solid" viewBox="0 0 10 10" refX="9" refY="5" markerWidth="7" markerHeight="7" orient="auto-start-reverse"><path d="M1 1L9 5L1 9z" fill="#2E332B" stroke="none"/></marker><marker id="arrow-open-next" viewBox="0 0 10 10" refX="9" refY="5" markerWidth="7" markerHeight="7" orient="auto-start-reverse"><path d="M1 1L9 5L1 9" fill="none" stroke="#6F5713" stroke-width="1.5"/></marker><marker id="arrow-solid-next" viewBox="0 0 10 10" refX="9" refY="5" markerWidth="7" markerHeight="7" orient="auto-start-reverse"><path d="M1 1L9 5L1 9z" fill="#6F5713" stroke="none"/></marker></defs><path d="M72 194L72 310" fill="none" stroke="#2E332B" stroke-width="1" marker-end="url(#arrow-solid)"/><path d="M72 458L72 574" fill="none" stroke="#2E332B" stroke-width="1" marker-end="url(#arrow-solid)"/><rect x="0" y="48" width="144" height="144" rx="8" fill="#F7F7F2" stroke="#2E332B" stroke-width="1.5"/><path d="M46.7 94.2L46.7 106.8" fill="none" stroke="#5A6154" stroke-width="1"/><path d="M46.7 106.8L46.7 94.2" fill="none" stroke="#5A6154" stroke-width="1"/><path d="M46.7 116.5L46.7 133.9L55.3 133.9" fill="none" stroke="#5A6154" stroke-width="1"/><path d="M46.7 116.5L46.7 133.9L38.2 133.9" fill="none" stroke="#5A6154" stroke-width="1"/><path d="M60.1 138.8L60.1 156.2L51.6 156.2" fill="none" stroke="#5A6154" stroke-width="1"/><path d="M33.4 138.8L33.4 156.2L41.9 156.2" fill="none" stroke="#5A6154" stroke-width="1"/><path d="M46.7 151.4L46.7 94.2" fill="none" stroke="#5A6154" stroke-width="1"/><circle cx="46.7" cy="89.4" r="3" fill="#5A6154"/><circle cx="46.7" cy="111.7" r="3" fill="#5A6154"/><circle cx="33.4" cy="133.9" r="3" fill="#5A6154"/><circle cx="60.1" cy="133.9" r="3" fill="#5A6154"/><circle cx="46.7" cy="156.2" r="3" fill="#5A6154"/><text x="22" y="74" font-family="'ГОСТ 2.304-81'" font-size="14.4" fill="#2E332B" text-anchor="middle">S<tspan dy="0.3em" font-size="0.6em">1</tspan></text><rect x="0" y="312" width="144" height="144" rx="8" fill="#F7F7F2" stroke="#2E332B" stroke-width="1.5"/><path d="M33.0 359.3L33.0 357.3L48.0 357.3" fill="none" stroke="#5A6154" stroke-width="1"/><path d="M33.0 372.7L33.0 374.7L48.0 374.7" fill="none" stroke="#5A6154" stroke-width="1"/><path d="M54.7 364.0L54.7 366.0L69.7 366.0" fill="none" stroke="#5A6154" stroke-width="1"/><path d="M54.7 368.0L54.7 366.0L69.7 366.0" fill="none" stroke="#5A6154" stroke-width="1"/><path d="M83.0 366.0L87.0 366.0" fill="none" stroke="#5A6154" stroke-width="1"/><path d="M100.3 366.0L104.3 366.0" fill="none" stroke="#5A6154" stroke-width="1"/><circle cx="33.0" cy="366.0" r="3" fill="#5A6154"/><circle cx="54.7" cy="357.3" r="3" fill="#5A6154"/><circle cx="54.7" cy="374.7" r="3" fill="#5A6154"/><circle cx="76.3" cy="366.0" r="3" fill="#5A6154"/><circle cx="93.7" cy="366.0" r="3" fill="#5A6154"/><circle cx="111.0" cy="366.0" r="3" fill="#5A6154"/><text x="22" y="338" font-family="'ГОСТ 2.304-81'" font-size="14.4" fill="#2E332B" text-anchor="middle">S<tspan dy="0.3em" font-size="0.6em">2</tspan></text><circle cx="72" cy="600" r="24" fill="#F7F7F2" stroke="#2E332B" stroke-width="1.5"/><circle cx="72" cy="600" r="19" fill="none" stroke="#5A6154" stroke-width="1.5"/><text x="72" y="605" font-family="'ГОСТ 2.304-81'" font-size="14.4" fill="#2E332B" text-anchor="middle">S<tspan dy="0.3em" font-size="0.6em">3</tspan></text><text x="216" y="41.28" font-family="'ГОСТ 2.304-81'" font-size="14.4" fill="#2E332B">S<tspan dy="0.3em" font-size="0.6em">1</tspan></text><text x="243.75625" y="41.28" font-family="'ГОСТ 2.304-81'" font-size="14.4" fill="#2E332B">Main</text><text x="216" y="64.32000000000001" font-family="'ГОСТ 2.304-81'" font-size="14.4" fill="#2E332B">S<tspan dy="0.3em" font-size="0.6em">2</tspan></text><text x="243.75625" y="64.32000000000001" font-family="'ГОСТ 2.304-81'" font-size="14.4" fill="#2E332B">Middle</text><text x="216" y="87.36000000000001" font-family="'ГОСТ 2.304-81'" font-size="14.4" fill="#2E332B">S<tspan dy="0.3em" font-size="0.6em">3</tspan></text><text x="243.75625" y="87.36000000000001" font-family="'ГОСТ 2.304-81'" font-size="14.4" fill="#2E332B">End</text></svg>
